<?xml version="1.0" encoding="utf-8"?>
<!-- Generator: Adobe Illustrator 19.0.0, SVG Export Plug-In . SVG Version: 6.00 Build 0)  -->
<svg version="1.1" xmlns="http://www.w3.org/2000/svg" xmlns:xlink="http://www.w3.org/1999/xlink" x="0px" y="0px"
	 viewBox="317 105 90 90" style="enable-background:new 317 105 90 90;" xml:space="preserve">
<style type="text/css">
	.st0{fill:#91DC5A;}
	.st1{fill:none;stroke:#91DC5A;stroke-width:3;stroke-miterlimit:10;}
	.st2{display:none;}
	.st3{display:inline;}
</style>
<g id="Capa_1">
	<g>
		<g>
			<path class="st0" d="M367.3,144.5c-0.2-1.5-0.6-3-1.4-4.4c-0.8-1.4-1.9-2.6-3.2-3.5c-2.8-2-6.7-3-12-2.4
				c-6.3,0.7-12.9-3-13.6-3.5c-0.8-0.6-2-0.4-2.6,0.4c-0.3,0.4-0.4,0.8-0.4,1.3c1.1,10.8,3.7,18.1,6.9,22.8c1.8,2.8,4.5,5,7.7,6.2
				c2.7,0.9,5.6,0.8,8.3-0.3c0.8-0.3,1.5-0.7,2.2-1.1c-0.1-0.2-0.3-0.5-0.5-0.7c-0.5-0.8-1.2-1.5-1.9-2.2c-0.4,0.2-0.8,0.4-1.3,0.6
				c-1.8,0.8-3.8,0.8-5.7,0.2c-2.4-0.9-4.4-2.6-5.8-4.8c-2.6-3.7-4.7-9.4-5.8-17.6c3.1,1.3,8,2.9,12.8,2.4c4.3-0.5,7.3,0.3,9.4,1.7
				c0.9,0.6,1.6,1.4,2.1,2.3s0.8,1.9,0.9,3c0.1,1,0,2-0.1,3c1.1,0.9,2.1,1.9,3.1,2.9C367.3,148.8,367.5,146.6,367.3,144.5z"/>
		</g>
	</g>
	<g>
		<g>
			<path class="st0" d="M384.6,149.3c-0.8-0.6-2-0.4-2.6,0.4c0,0,0,0,0,0.1c-1.3,1.9-3.3,3-5.3,4.1c-3.2,1.7-6.5,3.5-8.6,8
				c-2.5-9.2-7.8-12.1-12.8-14.9c-2.8-1.5-5.6-3.1-7.4-5.8c-0.6-0.8-1.8-1-2.6-0.4c-0.8,0.6-1,1.7-0.5,2.5c2.4,3.5,5.5,5.2,8.7,7
				c5.3,2.9,10.9,6,12.1,19.3c0.2,0,1.6,0,2.2,0s1.9,0,2.1,0c1.1-8.4,4.9-10.5,8.6-12.4c2.4-1.4,4.8-2.7,6.6-5.4
				C385.6,151,385.5,149.9,384.6,149.3z"/>
		</g>
	</g>
	<g>
		<g>
			<path class="st0" d="M391.3,141.5c-0.4,0-0.8,0-1.1,0.2c0,0-5.1,3.1-9.9,2.5c-4-0.5-7.1,0.4-9.2,1.9c-1,0.7-1.9,1.7-2.5,2.8
				c-0.6,1.1-0.9,2.2-1,3.4c-0.1,1.2-0.1,2.3,0.2,3.5c1-1.1,2.2-2.1,3.5-3v-0.1c0.1-0.7,0.3-1.4,0.6-2c0.4-0.6,0.8-1.1,1.4-1.5
				c1.4-1,3.6-1.5,6.6-1.2c3,0.2,6.1-0.3,8.9-1.5c-0.9,5.6-2.3,9.4-4.1,12c-0.9,1.5-2.4,2.7-4.1,3.4c-1,0.3-2,0.4-3,0.1
				c-1,0.9-1.8,1.9-2.6,3l0.4,0.2c2.1,0.9,4.3,0.9,6.5,0.2c2.4-0.9,4.5-2.6,5.9-4.8c2.4-3.5,4.3-9,5.2-17.1
				C393,142.5,392.3,141.6,391.3,141.5z"/>
		</g>
	</g>
	<circle class="st1" cx="362" cy="150" r="37.4"/>
	<path class="st0" d="M357.7,185.3c0,0,7.7-3.5,7.9-15.7l4.3-0.1c0,0-0.9,11.3-7.3,16.3C362.6,185.8,361.2,187.8,357.7,185.3z"/>
	<rect x="342.1" y="172.8" class="st0" width="9.7" height="1.9"/>
	<rect x="333.4" y="172.8" class="st0" width="5.6" height="1.9"/>
	<rect x="354.5" y="172.8" class="st0" width="9.7" height="1.9"/>
	<rect x="369.9" y="172.8" class="st0" width="7.7" height="1.9"/>
	<rect x="380.5" y="172.8" class="st0" width="9.7" height="1.9"/>
</g>
<g id="Layer_2" class="st2">
	<g class="st3">
		<g>
			<g>
				<path class="st0" d="M342.4,172.6c-0.4-4.4-2.4-7.6-4.5-10.9c-4.1-6.5-8.4-13.3,1.3-30.8c0.4-0.7,0.1-1.5-0.6-1.8
					c-0.7-0.4-1.5-0.1-1.9,0.5c0,0,0,0,0,0c-10.5,18.9-5.8,26.5-1.3,33.6c1.9,3,3.7,6,4.1,9.7c0.1,0.8,0.7,1.3,1.5,1.2
					C341.9,174.1,342.5,173.4,342.4,172.6z"/>
			</g>
		</g>
		<g>
			<g>
				<path class="st0" d="M375.5,130.9c-0.4,1.2-1.1,2.3-1.8,3.3c-1.4,1.8-3.3,3.1-5.6,3.6c-2.4,0.5-5.2,0.2-8.5-1.3
					c-4.7-2.1-10.2-6.6-16.3-14.3c3.4-0.4,9.6-1.5,14.1-4.9c3.9-2.9,7.3-4,10.2-3.7c1.2,0.1,2.4,0.5,3.5,1.1c1.1,0.6,2,1.4,2.7,2.4
					c1.2,1.6,2,3.5,2.3,5.5c1,0.2,1.9,0.4,2.9,0.7c-0.3-2.9-1.3-5.6-3-7.9c-1-1.3-2.2-2.4-3.6-3.2c-1.4-0.8-3-1.3-4.7-1.4
					c-3.5-0.3-7.6,0.9-12.1,4.3c-5.6,4.2-14,4.5-15,4.5c-0.8,0-1.4,0.5-1.5,1.3c0,0.3,0.1,0.6,0.3,0.9c7,9.4,13.4,14.7,18.9,17.2
					c3.8,1.7,7.3,2.1,10.2,1.5c2.9-0.6,5.4-2.3,7.2-4.7c0.9-1.2,1.7-2.6,2.2-4l-0.2-0.1C377.1,131.5,376.3,131.2,375.5,130.9z"/>
			</g>
		</g>
		<g>
			<g>
				<path class="st0" d="M395.3,142.8c-11.1-18.6-20.1-18.2-28.5-17.9c-3.6,0.1-7.1,0.3-10.5-1.3c-0.7-0.2-1.5,0.1-1.7,0.8
					c-0.2,0.6,0,1.3,0.6,1.6c4,1.8,7.8,1.7,11.7,1.5c7.6-0.3,15.7-0.6,26,16.6c0.4,0.7,1.2,0.9,1.9,0.5
					C395.5,144.3,395.7,143.4,395.3,142.8z"/>
			</g>
		</g>
		<g>
			<g>
				<path class="st0" d="M352.1,163.4c-0.4-4.2-1.8-7.3-3.8-9.6c-2-2.2-4.7-3.6-7.6-3.9c-1.5-0.2-3-0.2-4.5,0.1c0,0.1,0,0.2,0,0.2
					c0.1,0.8,0.2,1.7,0.4,2.5c1.3-0.2,2.5-0.3,3.8-0.1c2.3,0.3,4.4,1.3,5.9,3c1.6,1.8,2.8,4.4,3.1,8c0.5,5.1-0.6,12.1-4.2,21.3
					c-2-2.8-6-7.6-11.3-9.8c-4.5-1.9-7.1-4.3-8.4-7c-0.5-1.1-0.8-2.3-0.8-3.6c0-1.2,0.3-2.5,0.7-3.6c0.8-1.8,2-3.4,3.6-4.7
					c-0.3-0.9-0.6-1.9-0.7-2.9c-2.3,1.7-4.2,3.9-5.3,6.5c-0.6,1.5-0.9,3-1,4.6c0,1.6,0.4,3.3,1.1,4.8c1.5,3.2,4.6,6.2,9.8,8.3
					c6.9,2.9,11.4,10.7,11.5,10.8c0.4,0.7,1.2,0.9,1.9,0.5c0.3-0.2,0.5-0.4,0.6-0.7C351.3,177.6,352.7,169.4,352.1,163.4z"/>
			</g>
		</g>
		<g>
			<g>
				<path class="st0" d="M391.1,160.8c-0.4-0.6-1.3-0.8-1.9-0.3c-3.6,2.6-5.4,5.9-7.2,9.4c-3.6,6.7-7.3,13.9-27.4,14.2
					c-0.8,0-1.4,0.6-1.3,1.4c0,0.8,0.6,1.4,1.4,1.3c21.7-0.4,25.8-8.2,29.7-15.7c1.7-3.2,3.3-6.2,6.4-8.4
					C391.4,162.3,391.5,161.4,391.1,160.8z"/>
			</g>
		</g>
		<g>
			<g>
				<path class="st0" d="M401.4,149.1c-0.3-0.1-0.5-0.2-0.8-0.2l0,0c-11.6,1.4-19.4,4.3-24.4,7.8c-3.4,2.5-5.5,5.2-6.4,8.1
					c-0.9,2.8-0.7,5.8,0.4,8.5c0.6,1.4,1.4,2.7,2.4,3.9l0.2-0.1c0.7-0.5,1.3-1,1.9-1.6c-0.8-1-1.5-2.1-2-3.2c-0.9-2.1-1-4.5-0.3-6.7
					c0.7-2.3,2.4-4.6,5.4-6.7c4.2-3,10.8-5.5,20.5-7c-1.4,3.2-3.5,9-2.8,14.7c0.6,4.8-0.2,8.4-1.8,10.7c-0.7,1-1.6,1.9-2.7,2.5
					c-1.1,0.6-2.2,1-3.5,1.2c-2,0.2-4,0-5.9-0.7c-0.7,0.7-1.4,1.5-2.1,2.1c2.6,1.2,5.5,1.7,8.3,1.4c1.6-0.2,3.1-0.7,4.5-1.5
					c1.4-0.8,2.6-2,3.6-3.3c2-2.9,3-7.1,2.3-12.6c-0.9-7.4,3.6-15.3,3.6-15.4C402.3,150.3,402.1,149.4,401.4,149.1z"/>
			</g>
		</g>
	</g>
</g>
<g id="Layer_3" class="st2">
	<g class="st3">
		<g>
			<g>
				<path class="st0" d="M342,119c-0.1-1-0.4-1.9-0.9-2.8c-0.5-0.9-1.2-1.7-2-2.3c-1.8-1.3-4.3-1.9-7.7-1.6c-4,0.4-8.3-1.9-8.7-2.2
					c-0.5-0.4-1.3-0.3-1.7,0.3c-0.2,0.2-0.3,0.5-0.2,0.8c0.7,6.9,2.4,11.6,4.4,14.6c1.2,1.8,2.9,3.2,4.9,4c1.7,0.6,3.6,0.5,5.3-0.2
					c0.5-0.2,1-0.4,1.4-0.7c-0.1-0.2-0.2-0.3-0.3-0.5c-0.3-0.5-0.7-1-1.2-1.4c-0.3,0.1-0.5,0.3-0.8,0.4c-1.2,0.5-2.5,0.5-3.6,0.1
					c-1.5-0.6-2.8-1.7-3.7-3.1c-1.6-2.4-3-6-3.7-11.3c2,0.9,5.1,1.9,8.2,1.5c2.7-0.3,4.7,0.2,6,1.1c0.6,0.4,1,0.9,1.3,1.5
					c0.3,0.6,0.5,1.2,0.6,1.9c0.1,0.6,0,1.3-0.1,1.9c0.7,0.6,1.4,1.2,2,1.9C341.9,121.7,342.1,120.3,342,119z"/>
			</g>
		</g>
		<g>
			<g>
				<path class="st0" d="M353,122c-0.5-0.4-1.3-0.3-1.7,0.3c0,0,0,0,0,0c-0.8,1.2-2.1,1.9-3.4,2.6c-2,1.1-4.1,2.3-5.5,5.2
					c-1.6-5.9-5-7.8-8.2-9.5c-1.8-1-3.6-2-4.8-3.7c-0.4-0.5-1.1-0.7-1.7-0.3c-0.5,0.4-0.7,1.1-0.3,1.6c1.5,2.2,3.5,3.3,5.6,4.5
					c3.4,1.9,7,3.8,7.8,12.4c0.1,0,1,0,1.4,0c0.3,0,1.2,0,1.3,0c0.7-5.4,3.2-6.7,5.5-8c1.6-0.9,3.1-1.7,4.3-3.4
					C353.7,123.1,353.6,122.4,353,122z"/>
			</g>
		</g>
		<g>
			<g>
				<path class="st0" d="M342.2,137.4c-13.9,0-25.2,11.3-25.2,25.2c0,6.7,2.6,13.1,7.4,17.8c4.7,4.7,11.1,7.4,17.8,7.4
					c13.9,0,25.2-11.3,25.2-25.2C367.4,148.7,356.1,137.4,342.2,137.4z M354.5,143.4c4.3,2.8,7.6,6.9,9.2,11.8
					c-1.5-1.3-3.1-2.4-4.9-3.4C355.6,149.8,353.2,148.3,354.5,143.4z M324.1,176.4c-3.1-4-4.7-8.9-4.7-13.9c0-6,2.4-11.9,6.7-16.1
					c1.1,3,3.2,4.9,5.2,6.5c1.8,1.5,3.4,2.9,3.4,4.9c0,1.4-0.8,2.4-1.8,3.6c-1.3,1.4-2.3,3.2-2.8,5.1c-0.2,1.2-0.2,2.5-0.1,3.7
					c0.1,2,0.2,4.3-0.5,5.7C328.9,177.3,327.5,177.8,324.1,176.4z M342.2,185.4L342.2,185.4c-0.9,0-1.9-0.1-2.8-0.2
					c-0.7-1.6-0.2-3.5,1.2-4.5c1-0.8,3.9,0.1,7,1c1.6,0.5,3.2,0.9,4.7,1.2C349.2,184.6,345.7,185.4,342.2,185.4z M355.8,180.8
					c-1.9,0.3-4.8-0.5-7.5-1.3c-3.6-1.1-7.1-2.1-9.1-0.6c-1.9,1.3-2.9,3.6-2.4,5.9c-3.6-0.9-6.9-2.6-9.7-5.1c2,0.3,3.9-0.9,4.6-2.8
					c0.8-1.9,0.7-4.5,0.7-6.8c-0.1-1-0.1-2,0.1-3.1c0.4-1.5,1.3-2.9,2.3-4.1c1.2-1.5,2.4-2.9,2.3-5.1c-0.1-3-2-4.7-4.3-6.6
					c-1.9-1.7-4-3.5-4.8-6.5c4-3.2,9-4.9,14.2-4.9c3.6,0,7.1,0.8,10.2,2.4c-2.3,7,0.9,8.9,5.2,11.6c2.3,1.4,5,3.1,7.2,6.1
					c0.1,0.9,0.2,1.8,0.2,2.7C364.9,169.8,361.6,176.5,355.8,180.8z"/>
			</g>
		</g>
		<g>
			<g>
				<path class="st0" d="M357.3,117c-0.3,0-0.5,0-0.7,0.2c0,0-3.3,2-6.3,1.6c-2.6-0.3-4.5,0.2-5.9,1.2c-0.7,0.5-1.2,1.1-1.6,1.8
					c-0.4,0.7-0.6,1.4-0.7,2.2c-0.1,0.7-0.1,1.5,0.1,2.2c0.7-0.7,1.4-1.4,2.3-1.9v-0.1c0-0.5,0.2-0.9,0.4-1.3c0.2-0.4,0.5-0.7,0.9-1
					c0.9-0.7,2.3-1,4.3-0.8c2,0.1,3.9-0.2,5.7-1c-0.6,3.6-1.5,6-2.6,7.7c-0.6,1-1.5,1.7-2.6,2.2c-0.6,0.2-1.3,0.2-1.9,0.1
					c-0.6,0.6-1.2,1.2-1.6,1.9l0.3,0.1c1.3,0.5,2.8,0.6,4.1,0.1c1.6-0.6,2.9-1.7,3.8-3.1c1.6-2.2,2.8-5.8,3.3-10.9
					C358.4,117.7,357.9,117.1,357.3,117z"/>
			</g>
		</g>
	</g>
</g>
</svg>
