<?xml version="1.0" encoding="iso-8859-1"?>
<!-- Generator: Adobe Illustrator 19.0.0, SVG Export Plug-In . SVG Version: 6.00 Build 0)  -->
<svg version="1.1" id="Capa_1" xmlns="http://www.w3.org/2000/svg" xmlns:xlink="http://www.w3.org/1999/xlink" x="0px" y="0px"
	 viewBox="0 0 464.065 464.065" style="enable-background:new 0 0 464.065 464.065;" xml:space="preserve">
<path style="fill:#4398D1;" d="M232.064,96.737L154.4,241.473c-22.391,42.343-6.216,94.82,36.127,117.211
	c12.79,6.763,27.069,10.219,41.537,10.053c47.895,0.55,87.168-37.832,87.717-85.727c0.166-14.467-3.29-28.747-10.053-41.537
	L232.064,96.737z"/>
<g>
	<path style="fill:#88B337;" d="M464.064,233.249c0.095-34.171-7.395-67.937-21.928-98.864l-11.072,33.352l-30.024-7.136
		c39.643,93.363-3.906,201.185-97.268,240.828c-10.509,4.462-21.41,7.935-32.564,10.372l-22.824,29.072l25.44,20
		C383.8,440.749,463.781,345.051,464.064,233.249z"/>
	<path style="fill:#88B337;" d="M232.576,0.737c-74.581-0.194-144.692,35.539-188.36,96h31.848l4,29.112l1.104,0.632
		C139.521,43.403,254.173,23.36,337.251,81.712c12.627,8.869,24.087,19.292,34.109,31.024h36.704V81.593
		C364.152,30.348,300.062,0.818,232.576,0.737L232.576,0.737z"/>
	<path style="fill:#88B337;" d="M215.712,415.593c-101.142-8.69-176.089-97.726-167.399-198.867
		c1.167-13.584,3.842-26.996,7.975-39.989l-12.8-32L12.8,157.009C-29.054,278.007,35.105,410.025,156.104,451.88
		c16.638,5.755,33.877,9.596,51.384,11.449l-19.104-28.88l27.328-18.08V415.593z"/>
</g>
<path style="fill:#3E8CC7;" d="M288.408,201.745c-31.736,83.032-81.144,119.104-125.512,133.784
	c30.038,37.942,85.148,44.35,123.09,14.311c32.684-25.876,42.614-71.196,23.742-108.367L288.408,201.745z"/>
<path style="fill:#6A9923;" d="M398.056,310.745c-24.398,51.479-71.221,88.791-126.848,101.08l-22.824,29.048l25.44,20
	c105.597-19.332,184.139-108.586,189.888-215.784L398.056,310.745z"/>
<g>
</g>
<g>
</g>
<g>
</g>
<g>
</g>
<g>
</g>
<g>
</g>
<g>
</g>
<g>
</g>
<g>
</g>
<g>
</g>
<g>
</g>
<g>
</g>
<g>
</g>
<g>
</g>
<g>
</g>
</svg>
